<svg width="50" height="45" viewBox="0 0 50 45" fill="none" xmlns="http://www.w3.org/2000/svg">
<path d="M30.2086 17.2945H22.411C21.7217 17.2945 21.0605 17.5684 20.5731 18.056C20.0857 18.5437 19.8118 19.2051 19.8118 19.8947C19.8118 20.5843 20.0857 21.2457 20.5731 21.7333C21.0605 22.221 21.7217 22.4949 22.411 22.4949H27.6094C28.2988 22.4949 28.9599 22.7689 29.4473 23.2565C29.9348 23.7441 30.2086 24.4055 30.2086 25.0951C30.2086 25.7848 29.9348 26.4461 29.4473 26.9338C28.9599 27.4214 28.2988 27.6954 27.6094 27.6954H19.8118M25.0102 30.2956V14.6942M14.4185 18.1005C14.2288 17.2457 14.2579 16.3569 14.5032 15.5163C14.7484 14.6758 15.2018 13.9108 15.8213 13.2923C16.4409 12.6739 17.2065 12.2219 18.0472 11.9783C18.8879 11.7347 19.7765 11.7074 20.6306 11.899C21.1006 11.1635 21.7482 10.5583 22.5136 10.139C23.279 9.71975 24.1376 9.5 25.0102 9.5C25.8828 9.5 26.7414 9.71975 27.5068 10.139C28.2722 10.5583 28.9198 11.1635 29.3899 11.899C30.2452 11.7066 31.1353 11.7338 31.9774 11.9779C32.8194 12.2221 33.5861 12.6753 34.206 13.2955C34.8259 13.9157 35.279 14.6826 35.5231 15.525C35.7671 16.3674 35.7943 17.2578 35.602 18.1135C36.3371 18.5838 36.9422 19.2316 37.3612 19.9973C37.7803 20.763 38 21.6219 38 22.4949C38 23.3679 37.7803 24.2268 37.3612 24.9925C36.9422 25.7582 36.3371 26.406 35.602 26.8763C35.7934 27.7307 35.7662 28.6196 35.5227 29.4606C35.2792 30.3017 34.8274 31.0676 34.2091 31.6874C33.5909 32.3072 32.8262 32.7608 31.986 33.0061C31.1458 33.2514 30.2573 33.2806 29.4029 33.0908C28.9334 33.8291 28.2853 34.437 27.5186 34.8581C26.7519 35.2792 25.8914 35.5 25.0167 35.5C24.142 35.5 23.2815 35.2792 22.5148 34.8581C21.7481 34.437 21.1 33.8291 20.6306 33.0908C19.7765 33.2824 18.8879 33.2551 18.0472 33.0115C17.2065 32.7679 16.4409 32.316 15.8213 31.6975C15.2018 31.079 14.7484 30.314 14.5032 29.4735C14.2579 28.6329 14.2288 27.7441 14.4185 26.8893C13.6776 26.4203 13.0674 25.7714 12.6446 25.0031C12.2217 24.2348 12 23.372 12 22.4949C12 21.6178 12.2217 20.755 12.6446 19.9867C13.0674 19.2184 13.6776 18.5695 14.4185 18.1005Z" stroke="white" stroke-width="2" stroke-linecap="round" stroke-linejoin="round"/>
</svg>
