<svg width="50" height="45" viewBox="0 0 50 45" fill="none" xmlns="http://www.w3.org/2000/svg">
<path d="M20.6365 22.4943L23.5531 25.4109L29.3865 19.5776M13.126 17.5651C12.9132 16.6063 12.9459 15.6092 13.2211 14.6664C13.4962 13.7236 14.005 12.8655 14.7003 12.1718C15.3955 11.478 16.2546 10.971 17.198 10.6978C18.1414 10.4246 19.1385 10.394 20.0969 10.6088C20.6244 9.78387 21.351 9.10495 22.2099 8.63468C23.0688 8.16441 24.0322 7.91791 25.0115 7.91791C25.9907 7.91791 26.9541 8.16441 27.813 8.63468C28.6719 9.10495 29.3985 9.78387 29.926 10.6088C30.8859 10.393 31.8847 10.4235 32.8296 10.6974C33.7745 10.9713 34.6347 11.4797 35.3304 12.1753C36.026 12.871 36.5344 13.7312 36.8083 14.6761C37.0822 15.621 37.1127 16.6199 36.8969 17.5797C37.7218 18.1072 38.4008 18.8339 38.871 19.6927C39.3413 20.5516 39.5878 21.5151 39.5878 22.4943C39.5878 23.4735 39.3413 24.4369 38.871 25.2958C38.4008 26.1547 37.7218 26.8814 36.8969 27.4088C37.1117 28.3672 37.0811 29.3643 36.8079 30.3077C36.5347 31.2511 36.0277 32.1102 35.3339 32.8055C34.6402 33.5007 33.7821 34.0095 32.8393 34.2847C31.8965 34.5599 30.8994 34.5925 29.9406 34.3797C29.4138 35.2078 28.6866 35.8896 27.8262 36.362C26.9659 36.8344 26.0002 37.082 25.0187 37.082C24.0372 37.082 23.0716 36.8344 22.2113 36.362C21.3509 35.8896 20.6237 35.2078 20.0969 34.3797C19.1385 34.5945 18.1414 34.5639 17.198 34.2907C16.2546 34.0175 15.3955 33.5105 14.7003 32.8168C14.005 32.123 13.4962 31.2649 13.2211 30.3221C12.9459 29.3793 12.9132 28.3822 13.126 27.4234C12.2947 26.8973 11.61 26.1695 11.1355 25.3077C10.661 24.4459 10.4122 23.4781 10.4122 22.4943C10.4122 21.5105 10.661 20.5426 11.1355 19.6808C11.61 18.819 12.2947 18.0912 13.126 17.5651Z" stroke="white" stroke-width="2" stroke-linecap="round" stroke-linejoin="round"/>
</svg>
