<svg width="50" height="45" viewBox="0 0 50 45" fill="none" xmlns="http://www.w3.org/2000/svg">
<g clip-path="url(#clip0_1_112)">
<path d="M9 35C9 30.7368 11.9211 27.3832 17.0211 26.4737C20.8421 25.7916 24.7895 23.6316 26.3684 22.2105M23.2105 33.5789C20.438 33.5865 17.7636 32.656 15.7177 30.9719C13.6718 29.2878 12.4038 26.9733 12.1654 24.4872C11.9269 22.0012 12.7353 19.5252 14.4302 17.5505C16.1252 15.5758 18.5828 14.2465 21.3158 13.8263C30.3158 12.2632 32.6842 11.5242 35.8421 8C37.4211 10.8421 39 13.94 39 19.3684C39 27.1842 31.4526 33.5789 23.2105 33.5789Z" stroke="white" stroke-width="2" stroke-linecap="round" stroke-linejoin="round"/>
</g>
<defs>
<clipPath id="clip0_1_112">
<rect width="50" height="45" rx="4" fill="white"/>
</clipPath>
</defs>
</svg>
