<svg width="212" height="212" viewBox="0 0 212 212" fill="none" xmlns="http://www.w3.org/2000/svg">
<g clip-path="url(#clip0_336_131)">
<path d="M143.48 93.22C142.66 91.61 140.99 90.4 139.19 90.6C132.2 91.38 115.66 95.9 111.05 90.6C106.38 85.24 113.3 69.36 115.08 62.48C115.63 60.34 114.17 58.18 112.12 57.35C110.07 56.52 107.72 57.19 106.42 58.98L67.92 111.78C66.85 113.24 66.7 115.17 67.52 116.78C68.34 118.39 70.01 119.6 71.81 119.4C78.8 118.62 95.34 114.1 99.95 119.4C104.62 124.76 97.7 140.64 95.92 147.52C95.37 149.66 96.83 151.82 98.88 152.65C99.47 152.89 100.08 153 100.69 153C102.2 153 103.66 152.3 104.58 151.02L143.08 98.22C144.15 96.76 144.3 94.83 143.48 93.22Z" fill="#9FD140"/>
<path d="M13.76 120C6.16 120 0 113.73 0 106C0 98.27 6.16 92 13.76 92H29.24C36.84 92 43 98.27 43 106C43 113.73 36.84 120 29.24 120H13.76Z" fill="#9FD140"/>
<path d="M31.25 50.23C25.95 44.93 25.95 36.34 31.25 31.04C36.55 25.74 45.14 25.74 50.44 31.04L61.23 41.83C66.53 47.13 66.53 55.72 61.23 61.02C55.93 66.32 47.34 66.32 42.04 61.02L31.25 50.23Z" fill="#9FD140"/>
<path d="M93 13.44C93 6.02 99.04 0 106.5 0C113.96 0 120 6.02 120 13.44V28.56C120 35.98 113.96 42 106.5 42C99.04 42 93 35.98 93 28.56V13.44Z" fill="#9FD140"/>
<path d="M161.97 31.05C167.27 25.75 175.86 25.75 181.16 31.05C186.46 36.35 186.46 44.94 181.16 50.24L170.37 61.03C165.07 66.33 156.48 66.33 151.18 61.03C145.88 55.73 145.88 47.14 151.18 41.84L161.97 31.05Z" fill="#9FD140"/>
<path d="M198.56 92C205.98 92 212 98.27 212 106C212 113.73 205.98 120 198.56 120H183.44C176.02 120 170 113.73 170 106C170 98.27 176.02 92 183.44 92H198.56Z" fill="#9FD140"/>
<path d="M181.16 161.77C186.46 167.07 186.46 175.66 181.16 180.96C175.86 186.26 167.27 186.26 161.97 180.96L151.18 170.17C145.88 164.87 145.88 156.28 151.18 150.98C156.48 145.68 165.07 145.68 170.37 150.98L181.16 161.77Z" fill="#9FD140"/>
<path d="M120 198.56C120 205.98 113.96 212 106.5 212C99.04 212 93 205.98 93 198.56V183.44C93 176.02 99.04 170 106.5 170C113.96 170 120 176.02 120 183.44V198.56Z" fill="#9FD140"/>
<path d="M50.44 180.95C45.14 186.25 36.55 186.25 31.25 180.95C25.95 175.65 25.95 167.06 31.25 161.76L42.04 150.97C47.34 145.67 55.93 145.67 61.23 150.97C66.53 156.27 66.53 164.86 61.23 170.16L50.44 180.95Z" fill="#9FD140"/>
</g>
<defs>
<clipPath id="clip0_336_131">
<rect width="212" height="212" fill="white"/>
</clipPath>
</defs>
</svg>
