<svg xmlns="http://www.w3.org/2000/svg" version="1.1" xmlns:xlink="http://www.w3.org/1999/xlink" width="512" height="512" x="0" y="0" viewBox="0 0 24 24" style="enable-background:new 0 0 512 512" xml:space="preserve"><g><path d="M19 2H5C3.35 2 2 3.35 2 5v14c0 1.65 1.35 3 3 3h14c1.65 0 3-1.35 3-3V5c0-1.65-1.35-3-3-3zm-2.54 8.21-5 5c-.2.19-.45.29-.71.29s-.51-.1-.71-.29l-2.5-2.5c-.39-.39-.39-1.03 0-1.42s1.03-.39 1.42 0l1.79 1.8 4.29-4.3c.39-.39 1.03-.39 1.42 0s.39 1.03 0 1.42z" fill="#ffffff" opacity="1" data-original="#000000"></path></g></svg>