<svg width="23" height="22" viewBox="0 0 23 22" fill="none" xmlns="http://www.w3.org/2000/svg">
<path d="M16.5306 21.4702H6.37563C4.91677 21.4702 3.51766 20.8907 2.4861 19.8591C1.45453 18.8276 0.875 17.4284 0.875 15.9696V5.81459C0.875 4.35573 1.45453 2.95663 2.4861 1.92506C3.51766 0.893493 4.91677 0.313965 6.37563 0.313965H16.5306C17.9895 0.313965 19.3886 0.893493 20.4202 1.92506C21.4517 2.95663 22.0312 4.35573 22.0312 5.81459V15.9696C22.0312 17.4284 21.4517 18.8276 20.4202 19.8591C19.3886 20.8907 17.9895 21.4702 16.5306 21.4702ZM6.37563 1.16021C5.14121 1.16021 3.95735 1.65059 3.08449 2.52345C2.21162 3.39631 1.72125 4.58017 1.72125 5.81459V15.9696C1.72125 17.204 2.21162 18.3879 3.08449 19.2607C3.95735 20.1336 5.14121 20.624 6.37563 20.624H16.5306C17.765 20.624 18.9489 20.1336 19.8218 19.2607C20.6946 18.3879 21.185 17.204 21.185 15.9696V5.81459C21.185 4.58017 20.6946 3.39631 19.8218 2.52345C18.9489 1.65059 17.765 1.16021 16.5306 1.16021H6.37563Z" fill="#A0A0A0"/>
<path d="M11.4531 15.8298C10.4765 15.8298 9.52176 15.5402 8.70974 14.9977C7.89771 14.4551 7.26481 13.6839 6.89107 12.7816C6.51734 11.8793 6.41955 10.8865 6.61008 9.92864C6.80061 8.97079 7.2709 8.09095 7.96147 7.40037C8.65204 6.7098 9.53189 6.23951 10.4897 6.04898C11.4476 5.85845 12.4404 5.95624 13.3427 6.32998C14.245 6.70371 15.0162 7.33661 15.5588 8.14864C16.1013 8.96067 16.3909 9.91535 16.3909 10.892C16.3898 12.2012 15.8692 13.4565 14.9434 14.3823C14.0176 15.3081 12.7623 15.8287 11.4531 15.8298ZM11.4531 6.80459C10.6436 6.80459 9.8524 7.04466 9.17945 7.49444C8.50649 7.94422 7.98206 8.5835 7.6725 9.33139C7.36294 10.0793 7.28216 10.9022 7.44038 11.696C7.5986 12.4898 7.98871 13.2189 8.56136 13.7909C9.134 14.363 9.86346 14.7523 10.6574 14.9097C11.4514 15.0671 12.2742 14.9855 13.0218 14.6752C13.7694 14.3648 14.4081 13.8397 14.8572 13.1663C15.3063 12.4929 15.5455 11.7014 15.5447 10.892C15.5436 9.80715 15.1121 8.76708 14.345 8C13.578 7.23291 12.5379 6.80147 11.4531 6.80035V6.80459Z" fill="#A0A0A0"/>
<path d="M16.7422 6.23775C16.4493 6.23775 16.1629 6.1509 15.9194 5.98817C15.6759 5.82544 15.486 5.59415 15.374 5.32355C15.2619 5.05294 15.2325 4.75517 15.2897 4.4679C15.3468 4.18063 15.4879 3.91675 15.695 3.70964C15.9021 3.50252 16.166 3.36148 16.4533 3.30434C16.7405 3.24719 17.0383 3.27652 17.3089 3.38861C17.5795 3.5007 17.8108 3.69051 17.9735 3.93405C18.1363 4.17759 18.2231 4.46392 18.2231 4.75682C18.2231 5.14959 18.0671 5.52627 17.7893 5.804C17.5116 6.08173 17.1349 6.23775 16.7422 6.23775ZM16.7422 4.12213C16.6166 4.12213 16.4939 4.15935 16.3896 4.22909C16.2852 4.29883 16.2038 4.39796 16.1558 4.51393C16.1078 4.62991 16.0952 4.75752 16.1197 4.88064C16.1442 5.00376 16.2046 5.11685 16.2934 5.20561C16.3821 5.29437 16.4952 5.35482 16.6183 5.37931C16.7415 5.4038 16.8691 5.39123 16.9851 5.34319C17.101 5.29515 17.2002 5.2138 17.2699 5.10943C17.3396 5.00506 17.3769 4.88235 17.3769 4.75682C17.3769 4.58849 17.31 4.42705 17.191 4.30803C17.0719 4.189 16.9105 4.12213 16.7422 4.12213Z" fill="#A0A0A0"/>
</svg>
