<svg width="17" height="17" viewBox="0 0 17 17" fill="none" xmlns="http://www.w3.org/2000/svg">
<g clip-path="url(#clip0_43_5)">
<path d="M0.537964 16.314L1.66263 12.2053C0.96863 11.0026 0.603964 9.6393 0.604631 8.2413C0.606631 3.87063 4.1633 0.313965 8.5333 0.313965C10.654 0.314632 12.6446 1.14063 14.142 2.6393C15.6386 4.13796 16.4626 6.12997 16.462 8.24863C16.46 12.62 12.9033 16.1766 8.5333 16.1766C7.20663 16.176 5.8993 15.8433 4.7413 15.2113L0.537964 16.314ZM4.93596 13.776C6.0533 14.4393 7.11996 14.8366 8.53063 14.8373C12.1626 14.8373 15.1213 11.8813 15.1233 8.2473C15.1246 4.60596 12.18 1.65396 8.53596 1.65263C4.9013 1.65263 1.94463 4.60863 1.9433 8.24197C1.94263 9.7253 2.3773 10.836 3.1073 11.998L2.4413 14.43L4.93596 13.776ZM12.5273 10.1333C12.478 10.0506 12.346 10.0013 12.1473 9.90197C11.9493 9.80263 10.9753 9.3233 10.7933 9.2573C10.612 9.1913 10.48 9.15797 10.3473 9.35663C10.2153 9.55463 9.8353 10.0013 9.71996 10.1333C9.60463 10.2653 9.48863 10.282 9.29063 10.1826C9.09263 10.0833 8.45396 9.87463 7.6973 9.1993C7.10863 8.67397 6.71063 8.0253 6.5953 7.82663C6.47996 7.62863 6.5833 7.5213 6.68196 7.42263C6.7713 7.33397 6.87996 7.1913 6.9793 7.0753C7.07996 6.96063 7.11263 6.87797 7.1793 6.7453C7.2453 6.6133 7.21263 6.4973 7.16263 6.39797C7.11263 6.2993 6.71663 5.32397 6.55196 4.9273C6.39063 4.5413 6.2273 4.5933 6.10596 4.5873L5.72596 4.58063C5.59396 4.58063 5.3793 4.62996 5.19796 4.82863C5.01663 5.0273 4.50463 5.50597 4.50463 6.4813C4.50463 7.45663 5.21463 8.39863 5.3133 8.53063C5.41263 8.66263 6.70996 10.664 8.6973 11.522C9.16996 11.726 9.5393 11.848 9.82663 11.9393C10.3013 12.09 10.7333 12.0686 11.0746 12.018C11.4553 11.9613 12.2466 11.5386 12.412 11.076C12.5773 10.6126 12.5773 10.216 12.5273 10.1333Z" fill="white"/>
</g>
<defs>
<clipPath id="clip0_43_5">
<rect width="16" height="16" fill="white" transform="translate(0.5 0.313965)"/>
</clipPath>
</defs>
</svg>
