<svg width="21" height="20" viewBox="0 0 21 20" fill="none" xmlns="http://www.w3.org/2000/svg">
<path d="M8.76791 10.7981C9.15661 11.3183 9.65252 11.7487 10.222 12.0601C10.7915 12.3716 11.4212 12.5568 12.0685 12.6032C12.7158 12.6496 13.3655 12.5561 13.9735 12.3291C14.5815 12.102 15.1336 11.7468 15.5924 11.2874L18.3078 8.5693C19.1321 7.71491 19.5883 6.5706 19.578 5.38282C19.5676 4.19505 19.0917 3.05884 18.2526 2.21893C17.4136 1.37901 16.2785 0.902583 15.0919 0.892261C13.9053 0.88194 12.7622 1.33855 11.9086 2.16374L10.3518 3.71304M12.3883 8.98607C11.9996 8.4659 11.5037 8.03549 10.9342 7.72404C10.3648 7.41259 9.73501 7.22738 9.08773 7.18098C8.44044 7.13457 7.79076 7.22806 7.18275 7.4551C6.57474 7.68213 6.02261 8.0374 5.56382 8.49682L2.8485 11.2149C2.02413 12.0693 1.56798 13.2136 1.5783 14.4014C1.58861 15.5891 2.06455 16.7253 2.90363 17.5653C3.7427 18.4052 4.87776 18.8816 6.06434 18.8919C7.25093 18.9022 8.39409 18.4456 9.24761 17.6204L10.7953 16.0711" stroke="#A0A0A0" stroke-width="1.5" stroke-linecap="round" stroke-linejoin="round"/>
</svg>
