<svg width="22" height="22" viewBox="0 0 22 22" fill="none" xmlns="http://www.w3.org/2000/svg">
<path d="M15.6406 0.345215H5.51562C4.06108 0.345215 2.66611 0.923031 1.63759 1.95155C0.609066 2.98007 0.03125 4.37504 0.03125 5.82959V15.9546C0.03125 17.4091 0.609066 18.8041 1.63759 19.8326C2.66611 20.8611 4.06108 21.439 5.51562 21.439H15.6406C17.0952 21.439 18.4901 20.8611 19.5187 19.8326C20.5472 18.8041 21.125 17.4091 21.125 15.9546V5.82959C21.125 4.37504 20.5472 2.98007 19.5187 1.95155C18.4901 0.923031 17.0952 0.345215 15.6406 0.345215ZM11 20.5952V13.4233C11 13.3115 10.9556 13.2041 10.8764 13.125C10.7973 13.0459 10.69 13.0015 10.5781 13.0015H8.46875V10.4702H10.5781C10.69 10.4702 10.7973 10.4258 10.8764 10.3467C10.9556 10.2675 11 10.1602 11 10.0483V6.67334C11 6.1139 11.2222 5.57737 11.6178 5.18179C12.0134 4.7862 12.5499 4.56396 13.1094 4.56396H16.4844V7.09521H14.7969C14.4612 7.09521 14.1393 7.22856 13.9019 7.46591C13.6646 7.70326 13.5312 8.02518 13.5312 8.36084V10.0483C13.5312 10.1602 13.5757 10.2675 13.6548 10.3467C13.7339 10.4258 13.8412 10.4702 13.9531 10.4702H16.4844V13.0015H13.9531C13.8412 13.0015 13.7339 13.0459 13.6548 13.125C13.5757 13.2041 13.5312 13.3115 13.5312 13.4233V20.5952H11ZM20.2812 15.9546C20.2812 17.1854 19.7923 18.3657 18.922 19.236C18.0518 20.1063 16.8714 20.5952 15.6406 20.5952H14.375V13.8452H16.9062C17.0181 13.8452 17.1254 13.8008 17.2046 13.7217C17.2837 13.6425 17.3281 13.5352 17.3281 13.4233V10.0483C17.3281 9.93645 17.2837 9.82915 17.2046 9.75003C17.1254 9.67091 17.0181 9.62646 16.9062 9.62646H14.375V8.36084C14.375 8.24895 14.4194 8.14165 14.4986 8.06253C14.5777 7.98341 14.685 7.93896 14.7969 7.93896H16.9062C17.0181 7.93896 17.1254 7.89452 17.2046 7.8154C17.2837 7.73628 17.3281 7.62898 17.3281 7.51709V4.14209C17.3281 4.0302 17.2837 3.9229 17.2046 3.84378C17.1254 3.76466 17.0181 3.72021 16.9062 3.72021H13.1094C12.3262 3.72021 11.575 4.03135 11.0212 4.58517C10.4674 5.13898 10.1562 5.89012 10.1562 6.67334V9.62646H8.04688C7.93499 9.62646 7.82768 9.67091 7.74856 9.75003C7.66945 9.82915 7.625 9.93645 7.625 10.0483V13.4233C7.625 13.5352 7.66945 13.6425 7.74856 13.7217C7.82768 13.8008 7.93499 13.8452 8.04688 13.8452H10.1562V20.5952H5.51562C4.28485 20.5952 3.10449 20.1063 2.23421 19.236C1.36392 18.3657 0.875 17.1854 0.875 15.9546V5.82959C0.875 4.59882 1.36392 3.41846 2.23421 2.54817C3.10449 1.67789 4.28485 1.18896 5.51562 1.18896H15.6406C16.8714 1.18896 18.0518 1.67789 18.922 2.54817C19.7923 3.41846 20.2812 4.59882 20.2812 5.82959V15.9546Z" fill="#A0A0A0"/>
</svg>
