<svg width="41" height="41" viewBox="0 0 41 41" fill="none" xmlns="http://www.w3.org/2000/svg">
<g clip-path="url(#clip0_81_155)">
<path d="M27.7489 18.0259C27.5882 17.7174 27.2669 17.4796 26.9199 17.5182C25.5704 17.666 22.37 18.5464 21.4768 17.5182C20.5771 16.4835 21.9138 13.4118 22.2544 12.0815C22.3636 11.6702 22.0809 11.2525 21.6824 11.0919C21.284 10.9312 20.8342 11.0597 20.5771 11.4067L13.129 21.6182C12.9233 21.9009 12.8912 22.2737 13.0519 22.5886C13.2125 22.897 13.5338 23.1348 13.8809 23.0962C15.2304 22.9484 18.4307 22.068 19.324 23.0962C20.2237 24.1309 18.887 27.2027 18.5464 28.5329C18.4371 28.9442 18.7199 29.3619 19.1183 29.5226C19.234 29.5676 19.3497 29.5933 19.4653 29.5933C19.7545 29.5933 20.0373 29.4583 20.2172 29.2141L27.6653 19.0027C27.871 18.7199 27.9031 18.3472 27.7425 18.0323L27.7489 18.0259Z" fill="#95CB38"/>
<path d="M2.6605 23.2055C1.18887 23.2055 0 21.9909 0 20.5C0 19.0091 1.18887 17.7945 2.6605 17.7945H5.65517C7.1268 17.7945 8.31567 19.0091 8.31567 20.5C8.31567 21.9909 7.1268 23.2055 5.65517 23.2055H2.6605Z" fill="#95CB38"/>
<path d="M6.04075 9.71661C5.01897 8.69483 5.01897 7.03041 6.04075 6.00862C7.06254 4.98683 8.72696 4.98683 9.74875 6.00862L11.8373 8.09718C12.8591 9.11896 12.8591 10.7834 11.8373 11.8052C10.8155 12.827 9.1511 12.827 8.12931 11.8052L6.04075 9.71661Z" fill="#95CB38"/>
<path d="M17.9873 2.59624C17.9873 1.16317 19.1569 0 20.5964 0C22.0359 0 23.2055 1.16317 23.2055 2.59624V5.52022C23.2055 6.95329 22.0359 8.11646 20.5964 8.11646C19.1569 8.11646 17.9873 6.95329 17.9873 5.52022V2.59624Z" fill="#95CB38"/>
<path d="M31.3219 6.0022C32.3437 4.98041 34.0081 4.98041 35.0299 6.0022C36.0517 7.02398 36.0517 8.6884 35.0299 9.71019L32.9414 11.7987C31.9196 12.8205 30.2552 12.8205 29.2334 11.7987C28.2116 10.777 28.2116 9.11254 29.2334 8.09075L31.3219 6.0022Z" fill="#95CB38"/>
<path d="M38.3974 17.7945C39.8304 17.7945 40.9936 19.0091 40.9936 20.5C40.9936 21.9909 39.8304 23.2055 38.3974 23.2055H35.4734C34.0403 23.2055 32.8771 21.9909 32.8771 20.5C32.8771 19.0091 34.0403 17.7945 35.4734 17.7945H38.3974Z" fill="#95CB38"/>
<path d="M35.0363 31.2834C36.0581 32.3052 36.0581 33.9696 35.0363 34.9914C34.0146 36.0132 32.3501 36.0132 31.3283 34.9914L29.2398 32.9028C28.218 31.881 28.218 30.2166 29.2398 29.1948C30.2616 28.173 31.926 28.173 32.9478 29.1948L35.0363 31.2834Z" fill="#95CB38"/>
<path d="M23.2055 38.3973C23.2055 39.8304 22.0359 40.9936 20.5964 40.9936C19.1569 40.9936 17.9873 39.8304 17.9873 38.3973V35.4734C17.9873 34.0403 19.1569 32.8771 20.5964 32.8771C22.0359 32.8771 23.2055 34.0403 23.2055 35.4734V38.3973Z" fill="#95CB38"/>
<path d="M9.75516 34.9914C8.73337 36.0132 7.06895 36.0132 6.04716 34.9914C5.02538 33.9696 5.02538 32.3052 6.04716 31.2834L8.13572 29.1948C9.15751 28.173 10.8219 28.173 11.8437 29.1948C12.8655 30.2166 12.8655 31.881 11.8437 32.9028L9.75516 34.9914Z" fill="#95CB38"/>
</g>
<defs>
<clipPath id="clip0_81_155">
<rect width="41" height="41" fill="white"/>
</clipPath>
</defs>
</svg>
