<svg width="115" height="35" viewBox="0 0 115 35" fill="none" xmlns="http://www.w3.org/2000/svg">
<g clip-path="url(#clip0_1_21)">
<path fill-rule="evenodd" clip-rule="evenodd" d="M0.23586 10.581L0.150349 10.8224C-0.232784 11.8853 0.304713 13.0643 1.34972 13.4535L6.52591 15.3795C7.57203 15.7688 8.73254 15.2227 9.11567 14.161L9.20118 13.9195C9.58431 12.8567 9.04682 11.6777 8.00181 11.2884L2.82562 9.36245C1.7795 8.97319 0.618993 9.51928 0.23586 10.581ZM0.206986 24.3763L0.121475 24.1349C-0.256106 23.0698 0.285834 21.893 1.33418 21.5094L6.51814 19.6071C7.56648 19.2235 8.72476 19.7741 9.10234 20.8392L9.18786 21.0806C9.56544 22.1457 9.0235 23.3225 7.97515 23.7061L2.79119 25.6084C1.74285 25.992 0.584567 25.4414 0.206986 24.3763ZM8.60927 34.5928L8.82804 34.7225C9.79309 35.2923 11.0258 34.9583 11.5866 33.9779L14.3529 29.1353C14.9138 28.1549 14.585 26.9025 13.62 26.3327L13.4012 26.203C12.4362 25.6332 11.2035 25.9672 10.6427 26.9476L7.87632 31.7902C7.3155 32.7706 7.64422 34.023 8.60927 34.5928ZM24.602 15.1832C24.8863 15.1516 25.1495 15.3445 25.2772 15.604C25.4072 15.8635 25.3816 16.1738 25.215 16.4062L19.1393 24.8919C18.9938 25.0961 18.764 25.2101 18.5263 25.2101C18.4297 25.2101 18.3331 25.192 18.242 25.1548C17.9189 25.0228 17.689 24.673 17.7756 24.3312C17.8356 24.0954 17.9322 23.7964 18.0388 23.4624C18.4375 22.2202 18.9905 20.4894 18.4119 19.8113C17.8378 19.1389 16.0965 19.448 14.8416 19.6714C14.5051 19.7324 14.203 19.7854 13.9709 19.8113C13.6866 19.8429 13.4234 19.65 13.2957 19.3905C13.1658 19.131 13.1891 18.8207 13.3579 18.5883L19.4336 10.1026C19.6368 9.81375 20.01 9.7077 20.3332 9.84083C20.6563 9.97284 20.8862 10.3226 20.7996 10.6645C20.7396 10.898 20.643 11.1993 20.5364 11.5332C20.1377 12.7755 19.5847 14.5062 20.1632 15.1843C20.7374 15.8568 22.4787 15.5476 23.7303 15.3242C24.0668 15.2633 24.3688 15.2103 24.6009 15.1843L24.602 15.1832ZM16.1942 33.909C16.9527 34.0174 17.7301 34.0738 18.5019 34.0738C22.8596 34.0738 26.9564 32.3486 30.0381 29.2177C33.1209 26.0856 34.8178 21.9246 34.8178 17.4973C34.8178 13.0699 33.1198 8.90775 30.0381 5.77681C26.9564 2.64587 22.8596 0.919616 18.5019 0.919616C17.7301 0.919616 16.9527 0.974901 16.1942 1.08434C15.2924 1.21409 14.6661 2.06142 14.7938 2.97645C14.9215 3.8926 15.7555 4.52895 16.6562 4.3992C17.2636 4.31232 17.8844 4.26719 18.5019 4.26719C21.9801 4.26719 25.2506 5.64255 27.7093 8.14053C30.168 10.6385 31.5218 13.9613 31.5218 17.495C31.5218 21.0287 30.168 24.3515 27.7093 26.8495C25.2506 29.3475 21.9801 30.7228 18.5019 30.7228C17.8833 30.7228 17.2636 30.6777 16.6562 30.5908C15.7544 30.4611 14.9215 31.0997 14.7938 32.0136C14.6661 32.9297 15.2947 33.7759 16.1942 33.9057V33.9113V33.909ZM8.67923 0.400613L8.89801 0.273119C9.86528 -0.291015 11.0991 0.047465 11.6543 1.03131L14.4007 5.88738C14.956 6.8701 14.6228 8.12361 13.6544 8.68774L13.4356 8.81524C12.4684 9.37937 11.2346 9.04089 10.6793 8.05704L7.93295 3.20097C7.37769 2.21825 7.71085 0.964747 8.67923 0.400613Z" fill="#9FD140"/>
<path d="M42.1824 29.318C41.726 29.318 41.3084 29.2334 40.9308 29.0664C40.5499 28.8995 40.219 28.6659 39.9369 28.3692C39.6526 28.0724 39.4361 27.7306 39.285 27.3413C39.134 26.9543 39.0585 26.5436 39.0585 26.1115C39.0585 25.5338 39.1806 24.999 39.4316 24.5082C39.6793 24.0186 40.0213 23.6282 40.4566 23.3348C40.892 23.0404 41.3906 22.8948 41.9481 22.8948C42.5633 22.8948 43.0742 23.0246 43.4817 23.2875C43.8882 23.5492 44.1936 23.9024 44.4001 24.3525C44.6034 24.8005 44.7055 25.3059 44.7055 25.8678V26.4669H39.9835V25.6117H43.7338C43.6949 25.2111 43.5828 24.8862 43.4051 24.6346C43.2252 24.383 43.0086 24.1923 42.7532 24.0648C42.4978 23.9373 42.229 23.8742 41.9503 23.8742C41.5672 23.8742 41.2362 23.978 40.9564 24.1867C40.6776 24.3965 40.4611 24.6685 40.31 25.0058C40.159 25.3454 40.0835 25.7132 40.0835 26.1138C40.0835 26.5143 40.169 26.8686 40.3411 27.2082C40.5133 27.5478 40.7587 27.8197 41.0796 28.0273C41.3973 28.2338 41.7704 28.3398 42.1935 28.3398C42.6166 28.3398 43.0253 28.2281 43.3984 28.0036C43.7716 27.778 44.0847 27.532 44.3402 27.2646V28.3534C44.228 28.491 44.0636 28.6366 43.8426 28.7878C43.6239 28.9389 43.3707 29.0664 43.0864 29.1669C42.8021 29.2673 42.5045 29.3203 42.1946 29.3203H42.1868L42.1824 29.318Z" fill="#14211A"/>
<path d="M50.4882 29.1353L50.4748 25.5034C50.4748 24.9731 50.3605 24.5703 50.1328 24.2927C49.9062 24.0174 49.5564 23.8764 49.0845 23.8764C48.7635 23.8764 48.4481 23.996 48.1327 24.2363C47.8173 24.4766 47.5408 24.7553 47.3009 25.0735V23.9847C47.4286 23.8234 47.593 23.6564 47.7907 23.4894C47.9917 23.3224 48.216 23.1825 48.4692 23.0686C48.7191 22.9546 48.9834 22.8959 49.2544 22.8959C49.6608 22.8959 50.034 22.9885 50.3682 23.1712C50.7047 23.354 50.9701 23.6327 51.1711 24.0028C51.3721 24.374 51.471 24.8399 51.471 25.4018V29.1319H50.4882V29.1341V29.1353ZM46.3181 29.1353V23.0201H47.3009V29.1353H46.3181Z" fill="#14211A"/>
<path d="M56.0374 29.318C55.5809 29.318 55.1634 29.2334 54.7858 29.0664C54.4049 28.8995 54.074 28.6659 53.7919 28.3692C53.5076 28.0724 53.291 27.7306 53.14 27.3413C52.989 26.9543 52.9135 26.5436 52.9135 26.1115C52.9135 25.5338 53.0389 24.999 53.2866 24.5082C53.5342 24.0186 53.8763 23.6282 54.3116 23.3348C54.7469 23.0404 55.2456 22.8948 55.8031 22.8948C56.4183 22.8948 56.9291 23.0246 57.3367 23.2875C57.7432 23.5492 58.0486 23.9024 58.2551 24.3525C58.4583 24.8005 58.5605 25.3059 58.5605 25.8678V26.4669H53.8374V25.6117H57.5877C57.5488 25.2111 57.4366 24.8862 57.259 24.6346C57.0791 24.383 56.8603 24.1923 56.6071 24.0648C56.3517 23.9373 56.0829 23.8742 55.8042 23.8742C55.421 23.8742 55.0901 23.978 54.8102 24.1867C54.5315 24.3965 54.3149 24.6685 54.1639 25.0058C54.0129 25.3454 53.9374 25.7132 53.9374 26.1138C53.9374 26.5143 54.0229 26.8686 54.195 27.2082C54.3671 27.5478 54.6126 27.8197 54.9335 28.0273C55.2511 28.2338 55.6243 28.3398 56.0474 28.3398C56.4705 28.3398 56.8792 28.2281 57.2523 28.0036C57.6254 27.778 57.9386 27.532 58.194 27.2646V28.3534C58.0819 28.491 57.9175 28.6366 57.6965 28.7878C57.4777 28.9389 57.2245 29.0664 56.9402 29.1669C56.6559 29.2673 56.3583 29.3203 56.0485 29.3203H56.0407L56.0374 29.318Z" fill="#14211A"/>
<path d="M61.1536 25.4413V24.2442C61.3857 23.8358 61.6644 23.5108 61.9932 23.2671C62.3219 23.0234 62.655 22.9016 62.9993 22.9016C63.2314 22.9016 63.4402 22.9411 63.6223 23.0234V24.1833C63.5024 24.1088 63.3769 24.0535 63.2492 24.0107C63.1215 23.9712 62.9915 23.9497 62.8527 23.9497C62.4463 23.9497 62.1142 24.0953 61.8643 24.3898C61.6145 24.6842 61.3746 25.034 61.1525 25.4413H61.1536ZM60.1708 29.1353V23.02H61.1536V29.1353H60.1708Z" fill="#14211A"/>
<path d="M67.4093 28.3263C67.7768 28.3263 68.1033 28.2281 68.3843 28.0318C68.6686 27.8355 68.8929 27.5681 69.054 27.224C69.2183 26.8821 69.2994 26.4951 69.2994 26.0641V24.8907C69.0517 24.5725 68.7852 24.3266 68.5009 24.1517C68.2166 23.9768 67.8912 23.8899 67.5259 23.8899C67.0961 23.8899 66.7274 23.9983 66.4231 24.2126C66.1177 24.4304 65.8856 24.7102 65.7213 25.0554C65.5569 25.403 65.4758 25.7764 65.4758 26.1736C65.4758 26.5707 65.5536 26.9239 65.7157 27.2488C65.8745 27.5749 66.1022 27.8344 66.3942 28.0307C66.6863 28.227 67.0228 28.3252 67.4059 28.3252L67.4082 28.3274L67.4093 28.3263ZM67.1461 32.2527C66.7785 32.2527 66.4653 32.2098 66.2043 32.1229C65.9467 32.0383 65.7224 31.9322 65.5391 31.8047C65.3559 31.6773 65.1871 31.5588 65.0361 31.4448V30.3696C65.156 30.4599 65.3126 30.5761 65.5103 30.7194C65.7057 30.8626 65.94 30.9901 66.2166 31.103C66.4931 31.2158 66.8007 31.2756 67.145 31.2756C67.5359 31.2756 67.8957 31.2011 68.2244 31.0556C68.5531 30.91 68.8163 30.6923 69.014 30.4068C69.215 30.1202 69.3138 29.7784 69.3138 29.379V28.0939C69.105 28.4199 68.8241 28.7054 68.4687 28.9491C68.1144 29.1928 67.7069 29.3147 67.2538 29.3147C66.7429 29.3147 66.2754 29.1826 65.8512 28.9175C65.4292 28.6524 65.0894 28.2845 64.8395 27.8095C64.5896 27.3379 64.4619 26.7896 64.4619 26.1724C64.4619 25.4966 64.5874 24.9144 64.8395 24.4236C65.0894 23.9339 65.437 23.5571 65.8745 23.292C66.3121 23.0268 66.8051 22.8948 67.3482 22.8948C67.6924 22.8948 68.0423 22.9794 68.3965 23.1464C68.7508 23.3134 69.0562 23.5436 69.3149 23.838V23.0189H70.2978V29.0089C70.2978 29.7344 70.1545 30.3391 69.868 30.8186C69.5815 31.3004 69.1983 31.6581 68.7175 31.8939C68.2377 32.1297 67.7136 32.2493 67.1472 32.2493L67.145 32.2515L67.1461 32.2527Z" fill="#14211A"/>
<path d="M72.922 29.1353V23.0201H73.9048V29.1353H72.922ZM73.2918 21.7485C73.0597 21.7485 72.8665 21.6639 72.7099 21.4912C72.5533 21.3186 72.4756 21.1279 72.4756 20.9158C72.4756 20.7037 72.5533 20.5029 72.7099 20.3359C72.8665 20.1689 73.0597 20.0843 73.2918 20.0843C73.4428 20.0843 73.5817 20.1238 73.7038 20.2005C73.8293 20.2772 73.9259 20.381 73.9981 20.5051C74.0714 20.6326 74.1047 20.7669 74.1047 20.9158C74.1047 21.0535 74.0681 21.1889 73.9981 21.3186C73.9248 21.4484 73.8282 21.5522 73.7038 21.6312C73.5817 21.7079 73.4428 21.7474 73.2918 21.7474V21.7485ZM71.9758 23.9633V23.0223H73.9059V23.9633H71.9758Z" fill="#14211A"/>
<path d="M78.5545 28.3398C78.9221 28.3398 79.2508 28.2417 79.5374 28.0454C79.8239 27.849 80.0538 27.5794 80.2203 27.2319C80.3869 26.8844 80.468 26.4951 80.4602 26.063L80.4469 24.8896C80.1992 24.5714 79.9327 24.3221 79.6484 24.1449C79.3641 23.9644 79.0387 23.8742 78.6734 23.8742C78.2436 23.8742 77.8749 23.9859 77.5706 24.2059C77.2663 24.4259 77.0331 24.7091 76.8688 25.0566C76.7044 25.4041 76.6233 25.7775 76.6233 26.1747C76.6233 26.5718 76.7044 26.9272 76.8632 27.2556C77.022 27.5873 77.2497 27.849 77.5417 28.0454C77.8338 28.2417 78.1703 28.3398 78.5534 28.3398H78.5545ZM78.398 29.318C77.8871 29.318 77.4196 29.186 76.9954 28.9209C76.5734 28.6558 76.2335 28.2879 75.9837 27.8129C75.7338 27.3413 75.6061 26.793 75.6061 26.1758C75.6061 25.5 75.7316 24.9178 75.9837 24.427C76.2335 23.9373 76.5811 23.5605 77.0187 23.2954C77.4562 23.0302 77.9493 22.8982 78.4923 22.8982C78.8366 22.8982 79.1864 22.9828 79.5407 23.1498C79.895 23.3168 80.2004 23.547 80.4591 23.8414V23.0223H81.4419V29.1375H80.4591V28.0995C80.2503 28.4256 79.9694 28.711 79.614 28.9547C79.2586 29.1985 78.8522 29.3203 78.3991 29.3203V29.318H78.398Z" fill="#14211A"/>
<path d="M42.8688 15.9571C42.2269 15.9571 41.5905 15.8431 40.9598 15.6152C40.329 15.3873 39.7782 15.1041 39.3095 14.7679V11.9833C39.8237 12.376 40.4023 12.6964 41.0486 12.9446C41.6949 13.194 42.319 13.3181 42.9154 13.3181C43.2885 13.3181 43.5651 13.2436 43.7416 13.0981C43.9182 12.9525 44.0048 12.7641 44.0048 12.5362C44.0048 12.4279 43.9682 12.3241 43.8927 12.2259C43.8172 12.1278 43.7072 12.0352 43.564 11.9472C43.4207 11.8604 43.2508 11.7904 43.0576 11.7351L41.535 11.2477C40.9353 11.0514 40.4711 10.7919 40.1402 10.4658C39.8092 10.1397 39.5794 9.77418 39.4517 9.36688C39.3239 8.95845 39.2584 8.53986 39.2584 8.10322C39.2584 7.33261 39.4517 6.68273 39.8348 6.15583C40.2213 5.62893 40.721 5.23065 41.3418 4.95874C41.9626 4.68795 42.62 4.5503 43.313 4.5503C43.9438 4.5503 44.5645 4.62928 45.1798 4.78611C45.795 4.94294 46.2881 5.15167 46.6634 5.41456V8.19912C46.2048 7.92834 45.7217 7.69027 45.2209 7.4917C44.7178 7.29087 44.1625 7.18932 43.5551 7.18932C43.3207 7.18932 43.1175 7.22656 42.9454 7.30328C42.7733 7.38 42.6433 7.48042 42.5511 7.60565C42.4601 7.72976 42.4157 7.88095 42.4157 8.05358C42.4157 8.32436 42.57 8.53535 42.8799 8.68992C43.1897 8.84111 43.5684 9.01035 44.0193 9.19538L45.1098 9.63541C45.8894 9.94004 46.4524 10.3248 46.8023 10.793C47.1487 11.259 47.3242 11.787 47.3242 12.3715C47.3242 13.0653 47.1265 13.6825 46.7301 14.2207C46.3336 14.7589 45.7995 15.182 45.1265 15.4922C44.4535 15.8025 43.7005 15.956 42.8654 15.956H42.8677L42.8688 15.9571Z" fill="black"/>
<path d="M49.8573 15.71V7.40144H52.6158V15.71H49.8573ZM50.9967 6.13327C50.5269 6.13327 50.1205 5.96854 49.7784 5.6357C49.4364 5.30399 49.2642 4.90458 49.2642 4.43861C49.2642 3.97263 49.4364 3.55856 49.7784 3.23362C50.1205 2.90755 50.5269 2.7462 50.9967 2.7462C51.2965 2.7462 51.5753 2.82293 51.8385 2.97411C52.0994 3.1253 52.3104 3.32952 52.4726 3.58564C52.6314 3.8395 52.7125 4.12608 52.7125 4.44086C52.7125 4.75565 52.6314 5.02643 52.4726 5.28819C52.3104 5.54769 52.1028 5.75417 51.8385 5.90761C51.5775 6.0588 51.2965 6.13552 50.9967 6.13552V6.13327ZM48.5269 9.6828V7.40144H52.6158V9.6828H48.5269Z" fill="black"/>
<path d="M64.593 15.71V11.0175C64.593 10.6046 64.4886 10.3158 64.2798 10.1454C64.0711 9.97614 63.829 9.89378 63.5502 9.89378C63.3048 9.89378 63.0938 9.97276 62.9161 10.1296C62.7384 10.2864 62.5774 10.4737 62.4264 10.6915L62.0243 8.76777C62.2798 8.31195 62.6263 7.92834 63.0594 7.62032C63.4925 7.31005 63.9822 7.1566 64.5275 7.1566C65.0728 7.1566 65.5758 7.2841 66.0034 7.53796C66.4309 7.79182 66.7652 8.17656 67.0051 8.68541C67.245 9.19651 67.3649 9.82496 67.3649 10.5741V15.7055H64.5908L64.593 15.7077V15.71ZM59.6856 15.71V11.0175C59.6856 10.6046 59.5812 10.3158 59.3724 10.1454C59.1636 9.97614 58.9215 9.89378 58.6428 9.89378C58.3974 9.89378 58.1919 9.97276 58.0242 10.1296C57.8576 10.2864 57.701 10.4737 57.5522 10.6915V8.47668C57.7221 8.23861 57.8987 8.0186 58.082 7.81664C58.2641 7.61581 58.4762 7.45672 58.7161 7.33713C58.9559 7.21753 59.258 7.1566 59.6212 7.1566C60.263 7.1566 60.8183 7.33148 61.287 7.67899C61.7556 8.0265 62.0876 8.5376 62.2809 9.21005L62.4586 10.3677V15.7111H59.6845L59.6867 15.7089L59.6856 15.71ZM54.7959 15.71V7.40144H57.5545V15.71H54.7959Z" fill="black"/>
<path d="M73.475 14.6539C74.0514 14.6539 74.5444 14.5028 74.9509 14.1981C75.3574 13.8935 75.6705 13.5009 75.8893 13.0168C76.1081 12.5351 76.218 12.0307 76.218 11.5095C76.218 10.9882 76.1114 10.503 75.8971 10.0845C75.6827 9.66587 75.3829 9.3319 74.9998 9.08256C74.6133 8.83321 74.1602 8.7091 73.636 8.7091C73.1563 8.7091 72.721 8.83321 72.3301 9.08256C71.9391 9.3319 71.6338 9.67603 71.4172 10.1161C71.1984 10.5561 71.0885 11.0694 71.0885 11.655L71.104 13.2177C71.4461 13.6419 71.8025 13.986 72.1779 14.2512C72.551 14.5163 72.9842 14.6517 73.4761 14.6517L73.4739 14.6539H73.475ZM69.7714 19.6206V7.56616H71.0851V8.95168C71.3639 8.51729 71.7393 8.15173 72.2146 7.85274C72.6888 7.55375 73.2318 7.40482 73.8415 7.40482C74.5356 7.40482 75.1641 7.57745 75.7238 7.91931C76.2847 8.26118 76.7333 8.74069 77.0698 9.35221C77.4063 9.96712 77.5762 10.6847 77.5762 11.5117C77.5762 12.4019 77.4063 13.1804 77.0698 13.8484C76.7333 14.5163 76.2747 15.0353 75.6905 15.4031C75.1086 15.7709 74.4467 15.9571 73.7116 15.9571C73.2529 15.9571 72.7831 15.833 72.309 15.5836C71.8348 15.3343 71.425 15.0139 71.0829 14.6224V19.624H69.7692L69.7714 19.6217V19.6206Z" fill="black"/>
<path d="M81.0577 3.98166H79.7439V15.71H81.0577V3.98166Z" fill="black"/>
<path d="M84.5703 15.71V7.56616H85.8841V15.71H84.5703ZM85.0656 5.87376C84.7558 5.87376 84.497 5.75981 84.2883 5.5319C84.0795 5.30399 83.9751 5.05013 83.9751 4.7658C83.9751 4.48148 84.0795 4.21521 84.2883 3.99181C84.497 3.76954 84.7547 3.65784 85.0656 3.65784C85.2689 3.65784 85.4521 3.70862 85.6187 3.81129C85.783 3.91509 85.9163 4.04935 86.0129 4.21972C86.1095 4.38896 86.1562 4.56949 86.1562 4.7658C86.1562 4.95084 86.1095 5.12911 86.0129 5.30399C85.9163 5.47887 85.7864 5.61652 85.6187 5.72032C85.4521 5.82412 85.2689 5.87376 85.0656 5.87376ZM83.3032 8.81967V7.56616H85.8852V8.81967H83.3032Z" fill="black"/>
<path d="M89.2201 15.71V6.52252C89.2201 5.88166 89.3423 5.35702 89.5899 4.95197C89.8354 4.54353 90.1507 4.24229 90.5361 4.04033C90.9215 3.83837 91.3101 3.73795 91.7066 3.73795C91.9853 3.73795 92.2363 3.77518 92.4607 3.85191C92.685 3.92863 92.8782 4.03694 93.037 4.17798V5.35137C92.8782 5.24306 92.685 5.15506 92.4607 5.09187C92.2363 5.02531 92.012 4.99935 91.7877 5.00951C91.3912 5.01966 91.0836 5.14716 90.8648 5.39312C90.646 5.63683 90.5361 6.06331 90.5361 6.67258V15.7123H89.2223L89.2201 15.71ZM87.953 8.81967V7.56616H92.876V8.81967H87.953Z" fill="black"/>
<path d="M95.408 15.71V7.56616H96.7217V15.71H95.408ZM95.9066 5.87376C95.5968 5.87376 95.338 5.75981 95.1292 5.5319C94.9205 5.30399 94.8161 5.05013 94.8161 4.7658C94.8161 4.48148 94.9205 4.21521 95.1292 3.99181C95.338 3.76954 95.5957 3.65784 95.9066 3.65784C96.1098 3.65784 96.2931 3.70862 96.4597 3.81129C96.624 3.91509 96.7573 4.04935 96.8539 4.21972C96.9505 4.38896 96.9972 4.56949 96.9972 4.7658C96.9972 4.95084 96.9505 5.12911 96.8539 5.30399C96.7573 5.47887 96.6273 5.61652 96.4597 5.72032C96.2931 5.82412 96.1098 5.87376 95.9066 5.87376ZM94.1409 8.81967V7.56616H96.7229V8.81967H94.1409Z" fill="black"/>
<path d="M103.184 15.9571C102.574 15.9571 102.016 15.8454 101.507 15.6231C100.998 15.4009 100.555 15.0906 100.177 14.6957C99.7957 14.2985 99.5069 13.8427 99.3026 13.326C99.0994 12.8092 98.9972 12.2631 98.9972 11.6889C98.9972 11.1146 99.0994 10.5685 99.3026 10.0517C99.5058 9.53499 99.7979 9.07917 100.177 8.68428C100.554 8.28713 101.001 7.97685 101.507 7.74669C102.013 7.51652 102.573 7.40482 103.184 7.40482C103.795 7.40482 104.279 7.50072 104.706 7.6914C105.134 7.88208 105.428 8.05132 105.588 8.20589V9.55756C105.288 9.32965 104.946 9.13107 104.561 8.96409C104.174 8.7971 103.716 8.71248 103.182 8.71248C102.615 8.71248 102.118 8.85013 101.69 9.12882C101.263 9.40411 100.934 9.76967 100.704 10.2199C100.474 10.67 100.36 11.1631 100.36 11.6934C100.36 12.2237 100.474 12.6998 100.704 13.15C100.934 13.6001 101.263 13.9634 101.69 14.241C102.118 14.5197 102.616 14.6573 103.182 14.6573C103.716 14.6573 104.176 14.5727 104.561 14.4057C104.947 14.2387 105.288 14.0402 105.588 13.8123V15.1639C105.426 15.3253 105.134 15.5001 104.706 15.6863C104.279 15.8713 103.77 15.965 103.184 15.965V15.9593V15.9571Z" fill="black"/>
<path d="M111.138 14.6539C111.631 14.6539 112.068 14.5242 112.451 14.2613C112.835 13.9995 113.14 13.6385 113.364 13.1782C113.589 12.7167 113.695 12.1977 113.685 11.6234L113.67 10.0608C113.339 9.63654 112.983 9.30595 112.604 9.06676C112.223 8.8287 111.787 8.7091 111.298 8.7091C110.721 8.7091 110.228 8.85465 109.822 9.14912C109.415 9.4436 109.102 9.81932 108.883 10.2808C108.664 10.7422 108.555 11.2398 108.555 11.7723C108.555 12.3049 108.661 12.7742 108.875 13.2131C109.09 13.6532 109.392 14.0029 109.781 14.2647C110.169 14.5264 110.622 14.6573 111.137 14.6573L111.139 14.6551L111.138 14.6539ZM110.929 15.9571C110.246 15.9571 109.62 15.78 109.054 15.4268C108.489 15.0737 108.035 14.5817 107.698 13.9533C107.362 13.3226 107.192 12.5971 107.192 11.7701C107.192 10.8697 107.362 10.0935 107.698 9.44135C108.035 8.78921 108.497 8.28938 109.085 7.93398C109.672 7.58196 110.331 7.40369 111.057 7.40369C111.515 7.40369 111.985 7.51539 112.459 7.73766C112.933 7.95993 113.343 8.26795 113.685 8.6572V7.56616H114.999V15.71H113.685V14.3245C113.406 14.7589 113.031 15.138 112.556 15.464C112.082 15.7901 111.539 15.9515 110.929 15.9515V15.9571Z" fill="black"/>
</g>
<defs>
<clipPath id="clip0_1_21">
<rect width="115" height="35" fill="white"/>
</clipPath>
</defs>
</svg>
